<svg width="45" height="69" viewBox="0 0 128.807 200.946"><path d="M67.736 200.946c-.001 0 0 0 0 0-1.1 0-2.211-.015-3.332-.045-1.122.03-2.232.045-3.331.045-7.652 0-26.199-.849-33.138-8.714C11.263 173.326.575 140.777.128 139.401a2.618 2.618 0 0 1 1.161-3.064c1.095-.644 27.229-15.787 63.115-15.787 35.885 0 62.018 15.145 63.113 15.789a2.618 2.618 0 0 1 1.161 3.064c-.446 1.376-11.134 33.922-27.805 52.829-6.938 7.865-25.484 8.714-33.137 8.714m-3.332-5.281.071.001c1.097.03 2.185.045 3.261.045 14.24 0 25.434-2.66 29.211-6.942 13.62-15.446 23.412-41.461 26.046-48.927-6.526-3.376-29.48-14.057-58.589-14.057-29.169 0-52.077 10.676-58.592 14.053 2.633 7.461 12.427 33.483 26.05 48.932 3.777 4.281 14.97 6.941 29.211 6.941 1.076 0 2.162-.015 3.26-.045l.071-.001M64.404 114.257c-22.805 0-41.359-18.554-41.359-41.359a2.617 2.617 0 1 1 5.235 0c0 19.919 16.205 36.124 36.124 36.124s36.124-16.205 36.124-36.124a36.357 36.357 0 0 0-1.189-9.227 2.616 2.616 0 1 1 5.062-1.333 41.557 41.557 0 0 1 1.361 10.559c0 22.806-18.553 41.36-41.358 41.36"/><path d="M40.033 165.456c-.576 0-1.157-.19-1.64-.58-17.751-14.299-10.738-36.997-10.43-37.956a2.617 2.617 0 0 1 4.986 1.593c-.264.834-6.188 20.27 8.729 32.287a2.617 2.617 0 0 1-1.645 4.656"/><path d="M45.984 178.924c-5.88 0-10.665-4.785-10.665-10.667 0-5.88 4.785-10.664 10.665-10.664 5.881 0 10.666 4.784 10.666 10.664 0 5.882-4.785 10.667-10.666 10.667m0-16.096a5.435 5.435 0 0 0-5.43 5.429 5.436 5.436 0 0 0 5.43 5.431 5.436 5.436 0 0 0 5.43-5.431 5.435 5.435 0 0 0-5.43-5.429M89.679 184.012a2.616 2.616 0 0 1-1.609-4.684c3.491-2.715 6.383-6.989 8.142-12.036 3.601-10.327 2.082-19.592-3.535-21.552-5.631-1.96-14.638 3.587-18.254 13.955-.38 1.091-1.08 4.109-1.641 12.201l4.04 2.834a2.617 2.617 0 0 1 .153 4.17l-5.137 4.197a2.62 2.62 0 0 1-2.675.385 2.62 2.62 0 0 1-1.589-2.187c-.015-.173-.359-4.25-.115-8.221l.005-.09c.467-7.464 1.146-12.514 2.016-15.013 4.359-12.497 15.768-20.36 24.921-17.174 8.573 2.991 11.413 14.859 6.755 28.218-2.088 5.988-5.594 11.119-9.872 14.446a2.604 2.604 0 0 1-1.605.551"/><path d="M93.542 145.887a2.618 2.618 0 0 1-1.657-4.646c5.64-4.602 6.261-12.946 6.265-13.03a2.617 2.617 0 0 1 2.781-2.441 2.615 2.615 0 0 1 2.444 2.77c-.026.433-.74 10.685-8.18 16.757a2.605 2.605 0 0 1-1.653.59M87.873 189.129l-.066-.001a2.618 2.618 0 0 1-2.278-1.45l-3.046-6.118a2.617 2.617 0 0 1 2.002-3.762l7.007-.92a2.613 2.613 0 0 1 2.509 1.13c.556.821.599 1.886.112 2.749l-3.96 7.039a2.618 2.618 0 0 1-2.28 1.333M103.137 67.273c-1.022 0-1.935-.559-2.332-1.54-.454-.658-6.463-8.378-36.402-8.378-31 0-36.339 8.242-36.379 8.326a2.619 2.619 0 0 1-4.979-1.131V11.21c0-.707.287-1.385.795-1.878C24.233 8.951 33.807 0 64.404 0s40.172 8.951 40.564 9.332c.508.493.795 1.171.795 1.878v53.34c0 1.263-.86 2.446-2.102 2.675a2.927 2.927 0 0 1-.524.048M64.403 52.12c20.467 0 30.898 3.531 36.125 6.663V12.496c-2.701-1.83-12.693-7.261-36.124-7.261-23.427 0-33.421 5.427-36.124 7.259v46.289c5.227-3.133 15.658-6.663 36.123-6.663"/><path d="M69.716 47.542H59.114a2.618 2.618 0 0 1-2.618-2.618v-7.963h-7.962a2.617 2.617 0 0 1-2.618-2.618v-10.58a2.616 2.616 0 0 1 2.618-2.618l7.962.002.001-7.965a2.618 2.618 0 0 1 2.618-2.618h10.58a2.617 2.617 0 0 1 2.617 2.618v7.965h7.961a2.616 2.616 0 0 1 2.618 2.617v10.579a2.617 2.617 0 0 1-2.618 2.618h-7.962l.001 7.63a2.618 2.618 0 0 1-2.596 2.951m-7.985-5.235h5.347l-.001-7.964a2.615 2.615 0 0 1 2.617-2.617h7.963v-5.345h-7.962a2.616 2.616 0 0 1-2.617-2.617v-7.965h-5.346l-.001 7.965a2.618 2.618 0 0 1-2.617 2.617h-7.963v5.345h7.963a2.617 2.617 0 0 1 2.617 2.617v7.964z"/></svg>